<svg width="16" height="19" xmlns="http://www.w3.org/2000/svg" xmlns:xlink="http://www.w3.org/1999/xlink">
  <use xlink:href="#path0_fill" fill="#919EAB"/>
  <defs>
    <path id="path0_fill" d="M0 14c0 .88.39 1.67 1 2.22V18c0 .55.45 1 1 1h1c.55 0 1-.45 1-1v-1h8v1c0 .55.45 1 1 1h1c.55 0 1-.45 1-1v-1.78c.61-.55 1-1.34 1-2.22V4c0-3.5-3.58-4-8-4S0 .5 0 4v10zm3.5 1c-.83 0-1.5-.67-1.5-1.5S2.67 12 3.5 12s1.5.67 1.5 1.5S4.33 15 3.5 15zm9 0c-.83 0-1.5-.67-1.5-1.5s.67-1.5 1.5-1.5 1.5.67 1.5 1.5-.67 1.5-1.5 1.5zM14 9H2V4h12v5z"/>
  </defs>
</svg>